<svg width="200" height="200" viewBox="0 0 200 200" fill="none" xmlns="http://www.w3.org/2000/svg">
<path d="M69.1885 111.603L86.7348 74.7717H101.91L83.8894 111.603H69.1885ZM69.1885 119.349V111.603L73.2984 107.572H113.891V119.349H69.1885ZM95.5079 130.809V97.0603H109.339V130.809H95.5079Z" fill="black"/>
<path d="M35.2546 131.492L35.2621 131.495L35.2696 131.498C39.1851 133.1 43.6705 133.855 48.6563 133.855C56.1057 133.855 62.3288 132.248 66.9389 128.639C71.714 124.942 74.0239 119.694 74.0239 113.309C74.0239 110.141 73.497 107.254 72.3124 104.753C71.1959 102.396 69.6785 100.384 67.7474 98.7699C66.0088 97.2741 64.0891 96.0461 61.9963 95.0893C60.0601 94.2042 58.094 93.4285 56.0984 92.7628C54.299 92.1458 52.6304 91.5555 51.0922 90.992C49.7841 90.446 48.8487 89.884 48.2057 89.3482C47.9602 89.1436 47.8625 88.9696 47.8625 88.5704C47.8625 88.4737 47.8729 88.4189 47.8786 88.3958C47.8816 88.3839 47.884 88.3774 47.8849 88.3751C47.8858 88.3728 47.8863 88.372 47.8865 88.3716C47.8867 88.3713 47.8881 88.3688 47.8919 88.3638C47.8958 88.3587 47.9037 88.3491 47.9174 88.3354C47.9447 88.3081 48.0004 88.2593 48.1013 88.1968C48.5532 87.9171 49.4557 87.6185 51.1064 87.6185C52.7374 87.6185 54.1831 87.9497 55.4883 88.5825C56.8649 89.25 58.3105 90.2955 59.8132 91.7982L61.9252 93.9102L64.0465 91.8075L73.0568 82.8763L75.1018 80.8493L73.1603 78.7229C70.6064 75.9258 67.3944 73.7865 63.602 72.2695C59.7888 70.7443 55.6652 70 51.2645 70C46.8719 70 42.882 70.7419 39.3673 72.3174L40.3795 74.5754L39.3673 72.3174C35.8562 73.8914 33.0088 76.1803 30.9299 79.2042L30.9178 79.2218L30.9059 79.2396C28.836 82.3445 27.8728 86.0048 27.8728 90.0721C27.8728 93.1888 28.4002 96.0241 29.6122 98.4481C30.7342 100.692 32.2262 102.611 34.0976 104.16L34.1167 104.176L34.1362 104.191C35.8932 105.597 37.7949 106.796 39.837 107.788L39.8828 107.81L39.9293 107.831C41.9014 108.707 43.8538 109.478 45.7864 110.14L45.8343 110.157L45.8827 110.171C47.6812 110.721 49.274 111.311 50.6696 111.937L50.7256 111.962L50.7826 111.985C52.1145 112.517 53.0263 113.101 53.6307 113.672L53.6637 113.703L53.6975 113.733C53.9783 113.983 54.1133 114.234 54.1133 114.732C54.1133 115.014 54.0782 115.243 53.5344 115.594C52.9462 115.957 51.7793 116.316 49.6837 116.316C47.2868 116.316 45.2424 115.868 43.4906 115.039C41.6406 114.11 39.8432 112.758 38.1076 110.928L35.9784 108.684L33.8006 110.881L24.8694 119.891L22.8404 121.938L24.8043 124.047C27.9051 127.378 31.3863 129.885 35.2546 131.492Z" fill="black" stroke="white" stroke-width="6"/>
<path d="M134.811 130.809V74.7717H148.958V130.809H134.811ZM146.034 109.864V97.9297H170.483V109.864H146.034ZM146.034 86.7064V74.7717H171.747V86.7064H146.034Z" fill="black"/>
<circle cx="124" cy="125" r="13" fill="#52B7FF" stroke="white" stroke-width="6"/>
</svg>
